<?xml version="1.0" encoding="utf-8"?>
<svg version="1.1" xmlns:xlink="http://www.w3.org/1999/xlink" width="60px" height="60px" xmlns="http://www.w3.org/2000/svg">
  <g transform="matrix(1 0 0 1 -641 -282 )">
    <path d="M 671 282  C 687.8 282  701 295.2  701 312  C 701 328.8  687.8 342  671 342  C 654.2 342  641 328.8  641 312  C 641 295.2  654.2 282  671 282  Z " fill-rule="nonzero" fill="#5584ff" stroke="none" />
    <path d="M 671 282.5  C 687.52 282.5  700.5 295.48  700.5 312  C 700.5 328.52  687.52 341.5  671 341.5  C 654.48 341.5  641.5 328.52  641.5 312  C 641.5 295.48  654.48 282.5  671 282.5  Z " stroke-width="1" stroke="#f2f2f2" fill="none" />
  </g>
</svg>